<svg xmlns="http://www.w3.org/2000/svg" version="1.1" xmlns:xlink="http://www.w3.org/1999/xlink" xmlns:svgjs="http://svgjs.com/svgjs" width="1440" height="560" preserveAspectRatio="none" viewBox="0 0 1440 560"><g mask="url(&quot;#SvgjsMask1150&quot;)" fill="none"><rect width="1440" height="560" x="0" y="0" fill="rgba(40, 44, 52, 1)"></rect><path d="M0,554.6C105.953,558.412,199.375,502.472,298.133,463.903C422.614,415.288,604.506,422.839,654.609,298.95C705.39,173.384,547.951,57.407,515.733,-74.151C487.947,-187.613,547.894,-320.806,479.622,-415.594C410.644,-511.363,278.421,-529.317,164.826,-561.347C52.374,-593.055,-66.229,-639.631,-176.339,-600.557C-284.996,-561.998,-335.979,-443.685,-411.715,-356.753C-487.692,-269.545,-585.654,-199.292,-621.68,-89.384C-661.24,31.308,-689.658,176.618,-621.718,283.929C-553.892,391.059,-400.914,392.324,-284.658,442.937C-189.273,484.464,-103.965,550.86,0,554.6" fill="#24282f"></path><path d="M1440 1137.217C1562.507 1164.108 1695.461 1187.672 1808.633 1133.604 1926.341 1077.3690000000001 2031.5 969.892 2057.718 842.1030000000001 2083.214 717.837 1981.943 608.054 1941.101 487.953 1908.895 393.247 1898.932 293.727 1843.028 210.774 1781.799 119.918 1711.51 24.174999999999955 1606.807-8.092999999999961 1501.734-40.47500000000002 1386.545-7.557999999999993 1287.156 39.46199999999999 1196.576 82.315 1139.315 166.87900000000002 1074.835 243.582 1011.369 319.08000000000004 948.244 392.054 913.238 484.26300000000003 871.083 595.301 800.562 721.5029999999999 852.924 828.1089999999999 905.45 935.049 1057.09 936.271 1162.513 991.778 1256.828 1041.437 1335.89 1114.364 1440 1137.217" fill="#2c3039"></path></g><defs><mask id="SvgjsMask1150"><rect width="1440" height="560" fill="#ffffff"></rect></mask></defs></svg>