<?xml version="1.0" encoding="utf-8"?>
<svg viewBox="91.837 498.078 499.999 213.461" xmlns="http://www.w3.org/2000/svg">
  <defs>
    <linearGradient id="paint0_linear_1101_2246" x1="9.4592304" y1="62.2953" x2="60.959202" y2="62.2953" gradientUnits="userSpaceOnUse" gradientTransform="scale(9.7087406)">
      <stop stop-color="#ED1C24" id="stop285"/>
      <stop offset="0.06" stop-color="#F03F23" id="stop287"/>
      <stop offset="0.13" stop-color="#F26321" id="stop289"/>
      <stop offset="0.17" stop-color="#F37021" id="stop291"/>
      <stop offset="0.24" stop-color="#F78A1E" id="stop293"/>
      <stop offset="0.32" stop-color="#FBA51B" id="stop295"/>
      <stop offset="0.37" stop-color="#FCAF1A" id="stop297"/>
      <stop offset="0.41" stop-color="#EEB21F" id="stop299"/>
      <stop offset="0.5" stop-color="#C7BA2C" id="stop301"/>
      <stop offset="0.61" stop-color="#8DC63F" id="stop303"/>
      <stop offset="0.64" stop-color="#7DC24D" id="stop305"/>
      <stop offset="0.76" stop-color="#3FB184" id="stop307"/>
      <stop offset="0.82" stop-color="#26AB9A" id="stop309"/>
      <stop offset="0.88" stop-color="#1B9A9F" id="stop311"/>
      <stop offset="1" stop-color="#006EAB" id="stop313"/>
    </linearGradient>
  </defs>
  <path d="m 92.079913,640.89435 v 56.96768 c 0,2.82768 1.141246,5.53898 3.173116,7.53848 2.031399,1.99949 4.787611,3.12264 7.660491,3.12264 2.87384,0 5.6292,-1.12315 7.66114,-3.12264 2.03205,-1.9995 3.17392,-4.7108 3.17392,-7.53848 v -56.96768 z m 111.333607,0 v 56.96768 c 0,1.4 0.28055,2.78659 0.82431,4.07956 0.54426,1.29432 1.34232,2.4687 2.34856,3.45892 1.00689,0.99101 2.20094,1.77518 3.51551,2.31079 1.31463,0.5375 2.72341,0.81171 4.14554,0.81171 1.42324,0 2.83244,-0.2779 4.14664,-0.81171 1.3147,-0.5355 2.50878,-1.31978 3.5147,-2.31079 1.0057,-0.99022 1.80367,-2.1646 2.34849,-3.45892 0.54422,-1.29297 0.8249,-2.67956 0.8249,-4.07956 v -56.96768 z m 176.82445,0 v 5.17192 c 0,27.21061 -19.72805,48.53373 -44.95354,48.53373 -29.91541,0 -44.38827,-15.9129 -44.38827,-47.73786 v -5.96779 h -21.66901 v 6.92206 c 0,42.00957 20.1329,63.6504 59.75055,63.6504 10.51758,0.54323 20.96294,-1.98409 30.02517,-7.26532 9.06235,-5.27921 16.33778,-13.07602 20.91159,-22.41116 v -0.71624 17.66301 c 0,2.82797 1.14195,5.53982 3.1729,7.53866 2.03253,2 4.78829,3.12381 7.66123,3.12381 2.87366,0 5.62916,-1.12381 7.66123,-3.12381 2.03199,-1.99884 3.17348,-4.71069 3.17348,-7.53866 V 640.89457 Z M 269.22715,567.53681 v 57.44464 h 21.66901 v -57.44464 c 0,-2.82793 -1.14187,-5.53866 -3.17386,-7.53808 -2.03117,-2 -4.7875,-3.12304 -7.66027,-3.12304 -2.87361,0 -5.629,1.12304 -7.66111,3.12304 -2.0319,1.99942 -3.17377,4.71015 -3.17377,7.53808 z m 111.01082,0 v 57.44464 h 21.66884 v -57.44464 c 0,-2.82793 -1.14159,-5.53866 -3.17369,-7.53808 -2.03229,-2 -4.78729,-3.12304 -7.66124,-3.12304 -2.87275,0 -5.62916,1.12304 -7.66025,3.12304 -2.03177,1.99942 -3.17366,4.71015 -3.17366,7.53808 z m 87.96765,56.72942 c 2.50597,-32.46188 24.2555,-53.3875 55.14094,-53.3875 23.69022,0 48.51148,14.08236 48.51148,53.46707 v 0.63594 H 468.12431 Z m -22.15424,0.71486 H 432.2263 c -2.14471,0 -4.20087,0.83891 -5.71742,2.33018 -1.51685,1.49282 -2.36823,3.51648 -2.36823,5.62616 0,2.11101 0.85214,4.13395 2.36823,5.62627 1.51655,1.49231 3.57271,2.33047 5.71742,2.33047 h 13.82508 c 3.15333,42.88496 34.363,70.25478 81.49996,70.25478 16.67971,0.5771 33.27297,-2.60775 48.51185,-9.30917 2.00572,-0.63837 3.71674,-1.95427 4.82688,-3.71764 1.11051,-1.76315 1.54982,-3.85739 1.23591,-5.90978 -0.1,-1.00736 -0.42551,-1.9825 -0.95631,-2.84961 -0.53199,-0.86808 -1.25463,-1.60699 -2.1159,-2.16242 -1.38156,-0.62667 -2.88533,-0.95247 -4.40689,-0.95247 -1.52123,0 -3.02514,0.32247 -4.40579,0.95247 -2.66892,0.79786 -5.01341,1.66992 -7.35823,2.46634 -10.59913,4.07866 -21.9367,5.97449 -33.31065,5.56974 -36.4654,0 -60.55906,-20.92521 -61.44862,-53.46666 v -0.87566 h 113.19434 c 1.35051,0.16196 2.72138,0.0145 4.01602,-0.3767 1.2963,-0.41206 2.48493,-1.09536 3.48493,-2.0034 1,-0.90848 1.78699,-2.02004 2.30681,-3.25805 0.51982,-1.23761 0.76123,-2.5721 0.70148,-3.91094 v -1.19283 c 0,-69.77764 -53.0396,-75.26666 -69.29119,-75.26666 -19.54848,-0.54123 -38.52772,6.50858 -52.8392,19.62395 -14.31113,13.1155 -22.80562,31.24438 -23.64718,50.47083 z M 92.079913,508.73888 v 116.24253 h 21.668667 c 0,-25.61931 15.0379,-53.22786 48.02608,-53.22786 26.84275,0 41.63886,17.02721 41.63886,47.73895 v 5.48891 h 21.66907 v -5.01257 c 0,-42.00971 -20.29417,-65.16268 -57.0011,-65.16268 -10.53688,-0.66558 -21.04154,1.70435 -30.23136,6.81924 -9.19008,5.11543 -16.6657,12.75449 -21.51414,21.9834 l -2.8301,5.72805 v -80.59797 c 0,-2.82729 -1.14188,-5.53888 -3.17389,-7.53888 -2.03108,-1.99935 -4.78739,-3.12217 -7.66018,-3.12217 -2.873795,0 -5.629639,1.12282 -7.661686,3.12217 -2.031547,2 -3.172978,4.71159 -3.172978,7.53888" fill="url(#paint0_linear_1101_2246)" id="path281" style="fill:url(#paint0_linear_1101_2246);stroke-width:9.70793"/>
</svg>