<?xml version="1.0" standalone="no"?>
<!DOCTYPE svg PUBLIC "-//W3C//DTD SVG 20010904//EN"
 "http://www.w3.org/TR/2001/REC-SVG-20010904/DTD/svg10.dtd">
<svg version="1.0" xmlns="http://www.w3.org/2000/svg"
 width="1024.000000pt" height="1024.000000pt" viewBox="0 0 1024.000000 1024.000000"
 preserveAspectRatio="xMidYMid meet">

<g transform="translate(0.000000,1024.000000) scale(0.100000,-0.100000)"
fill="#000000" stroke="none">
<path d="M1870 8579 c-256 -23 -414 -84 -541 -209 -111 -109 -167 -230 -206
-444 -14 -79 -17 -228 -23 -1161 -6 -984 -8 -1075 -24 -1129 -35 -118 -93
-205 -167 -251 -71 -45 -129 -55 -331 -55 l-188 0 0 -214 0 -213 198 -5 c173
-5 204 -8 257 -28 110 -42 189 -140 232 -287 16 -53 18 -157 23 -1123 7 -1146
7 -1139 61 -1316 69 -224 219 -374 443 -443 117 -36 241 -52 459 -58 l207 -6
0 215 0 215 -174 7 c-258 10 -357 40 -452 136 -53 53 -88 125 -108 222 -14 67
-16 196 -16 1010 0 958 -4 1086 -40 1230 -42 168 -127 316 -227 395 l-49 38
77 76 c130 127 203 308 229 558 6 63 10 465 10 1045 0 976 2 1009 42 1111 41
104 129 186 242 225 66 22 229 40 374 40 l92 0 0 215 0 215 -152 -1 c-84 -1
-196 -6 -248 -10z"/>
<path d="M8050 8317 l0 -217 88 0 c139 0 303 -18 368 -40 113 -39 201 -121
242 -225 40 -102 42 -135 42 -1110 0 -556 4 -984 10 -1047 25 -263 121 -478
261 -584 l48 -37 -64 -59 c-112 -102 -182 -238 -226 -435 -22 -97 -23 -114
-29 -1138 -4 -703 -10 -1052 -17 -1078 -45 -156 -129 -250 -267 -297 -65 -22
-229 -40 -368 -40 l-88 0 0 -215 0 -215 133 0 c422 0 649 62 808 220 111 109
167 231 206 444 14 79 17 227 23 1156 5 961 7 1071 23 1123 43 145 124 245
233 287 52 20 83 23 257 28 l197 5 0 213 0 214 -188 0 c-202 0 -260 10 -331
55 -74 46 -132 133 -167 251 -16 54 -18 145 -24 1129 -7 1152 -7 1144 -61
1321 -68 224 -219 375 -443 443 -117 36 -241 52 -458 58 l-208 6 0 -216z"/>
<path d="M2707 7423 c-4 -3 -7 -69 -7 -144 l0 -139 248 -2 247 -3 3 -697 2
-698 145 0 145 0 2 698 3 697 243 3 242 2 0 145 0 145 -633 0 c-349 0 -637 -3
-640 -7z"/>
<path d="M4680 7420 c-106 -9 -168 -25 -247 -62 -124 -58 -205 -175 -220 -318
-21 -202 38 -345 175 -422 l53 -31 -49 -28 c-67 -38 -136 -118 -162 -187 -27
-71 -36 -199 -21 -274 36 -171 152 -284 343 -335 54 -14 137 -17 561 -20 l497
-4 0 145 0 146 -442 0 c-480 0 -528 5 -591 53 -92 70 -101 228 -18 307 65 63
69 63 579 67 l462 5 0 129 0 129 -453 0 c-505 0 -526 2 -585 63 -73 75 -69
214 7 287 65 63 69 63 579 67 l462 5 0 144 0 144 -422 -1 c-233 -1 -461 -5
-508 -9z"/>
<path d="M6000 6585 l0 -845 145 0 145 0 0 356 0 357 188 -6 c218 -6 277 -17
335 -61 57 -44 74 -72 232 -378 l137 -268 162 0 163 0 -144 283 c-80 155 -165
314 -189 353 -54 89 -128 158 -204 193 l-59 26 67 46 c104 70 145 131 317 466
85 167 155 308 155 313 0 7 -54 10 -152 8 l-153 -3 -145 -281 c-80 -155 -157
-300 -172 -322 -58 -87 -146 -112 -390 -112 l-148 0 0 360 0 360 -145 0 -145
0 0 -845z"/>
<path d="M5042 4448 c-121 -14 -216 -78 -274 -185 -15 -27 -125 -305 -244
-619 -119 -313 -222 -581 -230 -596 -17 -34 -43 -48 -84 -48 -38 0 -65 13 -76
37 -5 10 -11 275 -14 588 -5 554 -6 571 -26 622 -34 81 -77 128 -152 165 -65
32 -70 33 -192 33 -122 0 -127 -1 -192 -33 -75 -37 -125 -88 -163 -167 -18
-38 -464 -1226 -551 -1468 l-13 -38 155 3 156 3 139 375 c347 937 374 1006
396 1028 22 22 72 29 108 16 44 -17 45 -33 45 -601 0 -581 3 -609 53 -696 51
-87 126 -130 254 -149 164 -24 306 34 388 157 29 44 100 218 265 654 148 391
233 601 248 616 28 28 56 34 95 22 58 -19 57 -3 57 -747 l0 -680 145 0 145 0
0 713 c0 786 1 768 -63 863 -71 106 -203 152 -375 132z"/>
<path d="M6310 4420 c-106 -9 -168 -25 -247 -62 -124 -58 -205 -175 -220 -318
-21 -202 38 -345 175 -422 l53 -31 -49 -28 c-67 -38 -136 -118 -162 -187 -27
-71 -36 -199 -21 -274 36 -171 152 -284 343 -335 54 -14 137 -17 561 -20 l497
-4 0 145 0 146 -442 0 c-480 0 -528 5 -591 53 -92 70 -101 228 -18 307 65 63
69 63 579 67 l462 5 0 129 0 129 -453 0 c-505 0 -526 2 -585 63 -73 75 -69
214 7 287 65 63 69 63 579 67 l462 5 0 144 0 144 -422 -1 c-233 -1 -461 -5
-508 -9z"/>
</g>
</svg>
